# xmcd
#
# Track frame offsets:
#  150
#  12860
#  24713
#  37791
#  49672
#  62347
#  75403
#  87224
#  99896
#  121683
#  136160
#  149363
#  163255
#  175630
#  187946
#  200525
#  212097
#  224644
#  237288
#  252432
#
# Disc length: 3530 seconds
#
# Revision: 2
# Processed by: cddbd v1.5.1PL0 Copyright (c) Steve Scherf et al.
# Submitted via: Collectorz.com_Music_Collector 6.9
#
DISCID=040dc814
DTITLE=Big Joe Turner - Sun Risin Blues
DYEAR=2003
DGENRE=Blues
TTITLE0=Roll 'Em Pete
TTITLE1=Goin' Away Blues
TTITLE2=Cherry Red
TTITLE3=It's All Right Baby
TTITLE4=Careless Love
TTITLE5=Piney Brown Blues
TTITLE6=Blues On Central Avenue
TTITLE7=Sun Risin' Blues
TTITLE8=I'm A Lovin' Man
TTITLE9=My Gal's A Jockey
TTITLE10=Sally Zu-Zazz-Blues
TTITLE11=New Oo-Wee Baby Blues (Wee Baby Blues)
TTITLE12=Hollywood Bed (Cherry Red Blues)
TTITLE13=Radar Blues
TTITLE14=Tell My Pretty Baby
TTITLE15=Wine-O-Baby Boogie
TTITLE16=Jumpin' At The Jubilee
TTITLE17=Still In The Dark
TTITLE18=Chains Of Love
TTITLE19=The Chill Is On
EXTD=
EXTT0=
EXTT1=
EXTT2=
EXTT3=
EXTT4=
EXTT5=
EXTT6=
EXTT7=
EXTT8=
EXTT9=
EXTT10=
EXTT11=
EXTT12=
EXTT13=
EXTT14=
EXTT15=
EXTT16=
EXTT17=
EXTT18=
EXTT19=
PLAYORDER=
